/* XPM */
static char * D:\data\build\elekcoin\elekcoin_core_wallet_r\share\pixmaps\elekcoin64_xpm[] = {
"64 64 176 2",
"  	c None",
". 	c #1C97CF",
"+ 	c #1B96CE",
"@ 	c #1C97CE",
"# 	c #1B96CF",
"$ 	c #1C96CE",
"% 	c #1C96CF",
"& 	c #1B97CF",
"* 	c #1B97D0",
"= 	c #1B97CE",
"- 	c #1C95CE",
"; 	c #1C98CF",
"> 	c #6ABBE0",
", 	c #AFDAEE",
"' 	c #77C1E2",
") 	c #3EA7D6",
"! 	c #B0DBEE",
"~ 	c #FFFFFF",
"{ 	c #FEFFFF",
"] 	c #2E9FD3",
"^ 	c #1E98CF",
"/ 	c #3FA7D6",
"( 	c #E8F5FA",
"_ 	c #D8EDF7",
": 	c #48ABD8",
"< 	c #E9F5FA",
"[ 	c #4DAED9",
"} 	c #9FD3EB",
"| 	c #81C5E4",
"1 	c #5DB5DD",
"2 	c #1D97CF",
"3 	c #BADFF0",
"4 	c #8FCCE7",
"5 	c #56B2DB",
"6 	c #249BD1",
"7 	c #67B9DF",
"8 	c #B9DFF0",
"9 	c #FBFDFE",
"0 	c #289CD1",
"a 	c #42A8D7",
"b 	c #F9FCFE",
"c 	c #C8E6F3",
"d 	c #8CCAE7",
"e 	c #B6DDEF",
"f 	c #2FA0D3",
"g 	c #F0F8FC",
"h 	c #CFE9F5",
"i 	c #7BC2E3",
"j 	c #EAF5FB",
"k 	c #40A8D7",
"l 	c #96CFE9",
"m 	c #EDF7FB",
"n 	c #2099D0",
"o 	c #4CADD9",
"p 	c #85C7E5",
"q 	c #9AD1EA",
"r 	c #52B0DA",
"s 	c #229AD0",
"t 	c #D6ECF6",
"u 	c #F1F9FC",
"v 	c #B4DDEF",
"w 	c #74BFE2",
"x 	c #33A2D4",
"y 	c #A6D6EC",
"z 	c #FCFEFE",
"A 	c #F7FBFD",
"B 	c #D5ECF6",
"C 	c #5EB5DD",
"D 	c #1B98CF",
"E 	c #D4EBF6",
"F 	c #69BADF",
"G 	c #2199D0",
"H 	c #4FAEDA",
"I 	c #8AC9E6",
"J 	c #C5E5F3",
"K 	c #5BB4DC",
"L 	c #2B9ED2",
"M 	c #FDFEFF",
"N 	c #F4FAFD",
"O 	c #259BD1",
"P 	c #D2EAF6",
"Q 	c #62B7DE",
"R 	c #BDE1F1",
"S 	c #2D9FD3",
"T 	c #66B9DF",
"U 	c #A0D3EB",
"V 	c #D9EEF7",
"W 	c #C3E3F2",
"X 	c #7DC3E3",
"Y 	c #3DA6D6",
"Z 	c #D3EBF6",
"` 	c #279CD1",
" .	c #60B6DD",
"..	c #86C7E5",
"+.	c #EFF7FC",
"@.	c #A9D7ED",
"#.	c #61B7DE",
"$.	c #D2EBF6",
"%.	c #BEE1F1",
"&.	c #7DC3E4",
"*.	c #2A9ED2",
"=.	c #E3F2F9",
"-.	c #A7D7EC",
";.	c #6BBBE0",
">.	c #31A1D3",
",.	c #61B6DE",
"'.	c #A1D4EB",
").	c #99D0EA",
"!.	c #C4E4F3",
"~.	c #95CFE9",
"{.	c #D1EAF5",
"].	c #72BEE1",
"^.	c #A5D6EC",
"/.	c #E2F2F9",
"(.	c #2A9DD2",
"_.	c #FDFEFE",
":.	c #C1E3F2",
"<.	c #3BA5D6",
"[.	c #76C0E2",
"}.	c #B1DBEF",
"|.	c #EBF6FB",
"1.	c #CEE9F5",
"2.	c #7EC4E4",
"3.	c #43A9D7",
"4.	c #57B2DB",
"5.	c #34A2D4",
"6.	c #47ABD8",
"7.	c #FAFDFE",
"8.	c #DEF0F8",
"9.	c #CDE8F4",
"0.	c #91CCE8",
"a.	c #80C5E4",
"b.	c #239AD0",
"c.	c #ECF6FB",
"d.	c #DAEEF7",
"e.	c #98D0E9",
"f.	c #5AB4DC",
"g.	c #4AACD9",
"h.	c #F8FCFD",
"i.	c #C4E4F2",
"j.	c #88C8E6",
"k.	c #1F98D0",
"l.	c #30A0D3",
"m.	c #68BADF",
"n.	c #A0D4EB",
"o.	c #B7DEF0",
"p.	c #7CC3E3",
"q.	c #41A8D7",
"r.	c #32A1D4",
"s.	c #A4D5EC",
"t.	c #AEDAEE",
"u.	c #3AA5D5",
"v.	c #ABD9ED",
"w.	c #B8DEF0",
"x.	c #EFF8FC",
"y.	c #E1F1F9",
"z.	c #E4F2F9",
"A.	c #DCEFF8",
"B.	c #45AAD8",
"C.	c #F5FAFD",
"D.	c #39A4D5",
"E.	c #79C2E3",
"F.	c #74C0E2",
"G.	c #B5DDEF",
"H.	c #1F99D0",
"I.	c #4FAFDA",
"J.	c #F8FCFE",
"K.	c #AAD8ED",
"L.	c #33A1D4",
"M.	c #ECF7FB",
"N.	c #75C0E2",
"O.	c #56B1DB",
"P.	c #99D0E9",
"Q.	c #299DD2",
"R.	c #5FB6DD",
"S.	c #97D0E9",
"                                                    . + @ # + $ . % & & . *                                                     ",
"                                            & @ . . . . . . . . . . . . . . . . . &                                             ",
"                                        $ . . . . . . . . . . . . . . . . . . . . . . %                                         ",
"                                  = # . . . . . . . . . . . . . . . . . . . . . . . . . . . .                                   ",
"                                % . . . . . . . . . . . . . . . . . . . . . . . . . . . . . . +                                 ",
"                            $ . . . . . . . . . . . . . . . . . . . . . . . . . . . . . . . . . . @                             ",
"                          @ . . . . . . . . . . . . . . . . . . . . . . . . . . . . . . . . . . . . @                           ",
"                      - . . . . . . . . . . . . . . . . . . . . . . . . . . . . . . . . . . . . . . . . ;                       ",
"                    . . . . . . . . . . . . . . . . . . . . . . . . . . . . . . . . . . . . . . . . . . . +                     ",
"                  + . . . . . . . . . . . . . . . . . . . . . . . . . . . . . . . . . . . . . . . . . . . . +                   ",
"                + . . . . . . . . . . . . . . . . . . . . . . . . . . . . . . . . . . . . . . . . . . . . . . .                 ",
"              % . . . . . . . . . . . . . . . . . . . . . . > , ' ) . . . . . . . . . . . . . . . . . . . . . . -               ",
"              . . . . . . . . . . . . . . . . . . . . . . . ! ~ ~ { ] . ^ / . . . . . . . . . . . . . . . . . . .               ",
"            $ . . . . . . . . . . . . . . . . . . . . . . . ( ~ ~ _ . . : ~ < ! [ . . . . . . . . . . . . . . . . @             ",
"          @ . . . . . . . . . . . . . . . . . . . . . . . ) ~ ~ ~ } . . | ~ ~ ~ 1 . . . . . . . . . . . . . . . . . $           ",
"          . . . . . . . . . . . . . . . . 2 3 4 5 6 . . . ' ~ ~ ~ 7 . . 8 ~ ~ 9 0 . . . . . . . . . . . . . . . . . .           ",
"        . . . . . . . . . . . . . . . . . a ~ ~ ~ b c d 5 e ~ ~ { f . ^ g ~ ~ h . . . . . . . . . . . . . . . . . . . %         ",
"      . . . . . . . . . . . . . . . . . . i ~ ~ ~ ~ ~ ~ ~ ~ ~ ~ j k 2 : ~ ~ ~ l . . . . . . . . . . . . . . . . . . . . =       ",
"      & . . . . . . . . . . . . . . . . . , ~ ~ ~ ~ ~ ~ ~ ~ ~ ~ ~ ~ m _ ~ ~ ~ 1 . . . . . . . . . . . . . . . . . . . . #       ",
"      . . . . . . . . . . . . . . . . . . n o p _ ~ ~ ~ ~ ~ ~ ~ ~ ~ ~ ~ ~ ~ ~ q r n . . . . . . . . . . . . . . . . . . .       ",
"    @ . . . . . . . . . . . . . . . . . . . . . s t ~ ~ ~ ~ ~ ~ ~ ~ ~ ~ ~ ~ ~ ~ ~ u v w x . . . . . . . . . . . . . . . . $     ",
"    . . . . . . . . . . . . . . . . . . . . . . . y ~ ~ ~ ~ ~ z A ~ ~ ~ ~ ~ ~ ~ ~ ~ ~ ~ { B C . . . . . . . . . . . . . . .     ",
"  D . . . . . . . . . . . . . . . . . . . . . . . E ~ ~ ~ ~ ~ F G H I J b ~ ~ ~ ~ ~ ~ ~ ~ ~ K . . . . . . . . . . . . . . . &   ",
"  & . . . . . . . . . . . . . . . . . . . . . . L M ~ ~ ~ ~ N G . . . . O K l P M ~ ~ ~ ~ b O . . . . . . . . . . . . . . . .   ",
"  . . . . . . . . . . . . . . . . . . . . . . . Q ~ ~ ~ ~ ~ R . . . . . . . . . S T U V { W . . . . . . . . . . . . . . . . .   ",
"  . . . . . . . . . . . . . . . . . . . . . . . q ~ ~ ~ ~ ~ X . . . . . . . . . . . . . f Y . . . . . . . . . . . . . . . . .   ",
"= . . . . . . . . . . . . . . . . . . . . . . . Z ~ ~ ~ ~ ~ ) . . . . . . . . . . . . . . . . . . . . . . . . . . . . . . . . . ",
"@ . . . . . . . . . . . . . . . . . . . . . . L M ~ ~ ~ ~ ~ ` . . . . . . . . . . . . . . . . . . . . . . . . . . . . . . . . . ",
"& . . . . . . . . . . . . . . . . . . . . . .  .~ ~ ~ ~ ~ ~ ..G . . . . . . . . . . . . . . . . . . . . . . . . . . . . . . . . ",
"& . . . . . . . . . . . . . . . . . . . . . . q ~ ~ ~ ~ ~ ~ ~ +.@.#.O . . . . . . . . . . . . . . . . . . . . . . . . . . . . & ",
"% . . . . . . . . . . . . . . . . . . . . . . $.~ ~ ~ ~ ~ ~ ~ ~ ~ ~ A %.&.) . . . . . . . . . . . . . . . . . . . . . . . . . % ",
". . . . . . . . . . . . . . . . . . . . . . *.M ~ ~ ~ ~ ~ ~ ~ ~ ~ ~ ~ ~ ~ ~ =.-.;.>.. . . . . . . . . . . . . . . . . . . . . . ",
"$ . . . . . . . . . . . . . . . . . . . . . ,.~ ~ ~ ~ ~ ~ ~ ~ ~ ~ ~ ~ ~ ~ ~ ~ ~ ~ { '.. . . . . . . . . . . . . . . . . . . . @ ",
"& . . . . . . . . . . . . . . . . . . . . . ).~ ~ ~ ~ ~ !.~.{.M ~ ~ ~ ~ ~ ~ ~ ~ ~ ~ ].. . . . . . . . . . . . . . . . . . . . % ",
"# . . . . . . . . . . . . . . . . . . . . . P ~ ~ ~ ~ 9 ] . . ] F ^./.~ ~ ~ ~ ~ ~ M f . . . . . . . . . . . . . . . . . . . . # ",
"@ . . . . . . . . . . . . . . . . . . . . (._.~ ~ ~ ~ :.. . . . . . . <.[.}.|.~ ~ 1.. . . . . . . . . . . . . . . . . . . . . & ",
"+ . . . . . . . . . . . . . . . . . . . .  .~ ~ ~ ~ ~ 2.. . . . . . . . . . 2 3.X ;.. . . . . . . . . . . . . . . . . . . . . @ ",
". . . . . . . . . . . . . . . . . 4.5.. . -.~ ~ ~ ~ ~ 6.. . . . . . . . . . . . . . . . . . . . . . . . . . . . . . . . . . . = ",
"  . . . . . . . . . . . . . . . x 7.~ 8.9.~ ~ ~ ~ ~ { G . . . . . . . . . . . . . . . . . . . . . . . . . . . . . . . . . . .   ",
"  . . . . . . . . . . . . . . . 0.~ ~ ~ ~ ~ ~ ~ ~ ~ ~ a.2 . . . . . . . . . . . . . . . . . . . . . . . . . . . . . . . . . .   ",
"  @ . . . . . . . . . . . . . b.c.~ ~ ~ ~ ~ ~ ~ ~ ~ ~ ~ d.e.f.6 . . . . . . . . . . . . . . . . . . . . . . . . . . . . . . .   ",
"  + . . . . . . . . . . . . . g.V { ~ ~ ~ ~ ~ ~ ~ ~ ~ ~ ~ ~ ~ h.i.j.o k.. . . . . . . . . . . . . . . . . . . . . . . . . . D   ",
"    . . . . . . . . . . . . . . . l.m.n.d.{ ~ ~ ~ ~ ~ ~ ~ ~ ~ ~ ~ ~ ~ g o.p.q.. . . . . . . . . . . . . . . . . . . . . . .     ",
"    @ . . . . . . . . . . . . . . . . . . r.s.~ ~ ~ ~ ~ ~ ~ ~ ~ ~ ~ ~ ~ ~ ~ ~ < t.w u.. . . . . . . . . . . . . . . . . . @     ",
"      . . . . . . . . . . . . . . . . . . . v.~ ~ ~ p w.x.~ ~ ~ ~ ~ ~ ~ ~ ~ ~ ~ ~ ~ ~ y.` . . . . . . . . . . . . . . . .       ",
"      + . . . . . . . . . . . . . . . . . . z.~ ~ A.. . B.~ ~ ~ C.~ ~ ~ ~ ~ ~ ~ ~ ~ ~ J . . . . . . . . . . . . . . . . &       ",
"      + . . . . . . . . . . . . . . . . . D.~ ~ ~ s.. . p.~ ~ ~ #.u.E.o.u ~ ~ ~ ~ ~ ~ F.. . . . . . . . . . . . . . . . .       ",
"        % . . . . . . . . . . . . . . . . ].~ ~ ~ ;.. . G.~ ~ M L . . . H.I.d c 7.~ J.*.. . . . . . . . . . . . . . . .         ",
"          . . . . . . . . . . . . . . . . K.~ ~ ~ L.. 2 M.~ ~ Z . . . . . . . . ` C N.. . . . . . . . . . . . . . . .           ",
"          % . . . . . . . . . . . . . . . O.P.{.d.. . 3.~ ~ ~ q . . . . . . . . . . . . . . . . . . . . . . . . . . .           ",
"            @ . . . . . . . . . . . . . . . . . G . . ;.z ~ ~ Q . . . . . . . . . . . . . . . . . . . . . . . . . $             ",
"              . . . . . . . . . . . . . . . . . . . . . Q.R.S.L . . . . . . . . . . . . . . . . . . . . . . . . .               ",
"              @ . . . . . . . . . . . . . . . . . . . . . . . . . . . . . . . . . . . . . . . . . . . . . . . . %               ",
"                . . . . . . . . . . . . . . . . . . . . . . . . . . . . . . . . . . . . . . . . . . . . . . . +                 ",
"                  + . . . . . . . . . . . . . . . . . . . . . . . . . . . . . . . . . . . . . . . . . . . . +                   ",
"                    + . . . . . . . . . . . . . . . . . . . . . . . . . . . . . . . . . . . . . . . . . . .                     ",
"                      ; . . . . . . . . . . . . . . . . . . . . . . . . . . . . . . . . . . . . . . . . -                       ",
"                          $ . . . . . . . . . . . . . . . . . . . . . . . . . . . . . . . . . . . . @                           ",
"                            @ . . . . . . . . . . . . . . . . . . . . . . . . . . . . . . . . . . $                             ",
"                                . . . . . . . . . . . . . . . . . . . . . . . . . . . . . . . %                                 ",
"                                  . & . . . . . . . . . . . . . . . . . . . . . . . . . . # *                                   ",
"                                        @ . . . . . . . . . . . . . . . . . . . . . . @                                         ",
"                                            D . . . . . . . . . . . . . . . . . @ +                                             ",
"                                                    = @ & # % @ . % & . . .                                                     "};
