/* XPM */
static char * D:\data\build\elekcoin\pixmaps\elekcoin32_xpm[] = {
"32 32 114 2",
"  	c None",
". 	c #1B97CF",
"+ 	c #1C97CF",
"@ 	c #1C96CF",
"# 	c #1C97CE",
"$ 	c #1B96CF",
"% 	c #1C96CE",
"& 	c #1B96CE",
"* 	c #1B97CE",
"= 	c #54B1DB",
"- 	c #3BA5D6",
"; 	c #E5F3FA",
"> 	c #F5FAFD",
", 	c #2199D0",
"' 	c #69BADF",
") 	c #74BFE2",
"! 	c #289DD2",
"~ 	c #60B6DD",
"{ 	c #2D9FD2",
"] 	c #FFFFFF",
"^ 	c #C1E3F2",
"/ 	c #CEE9F5",
"( 	c #FEFFFF",
"_ 	c #2FA0D3",
": 	c #3DA6D6",
"< 	c #FDFEFF",
"[ 	c #D4EBF6",
"} 	c #C2E3F2",
"| 	c #96CFE9",
"1 	c #289CD1",
"2 	c #FBFDFE",
"3 	c #D9EDF7",
"4 	c #42A8D7",
"5 	c #B4DCEF",
"6 	c #F5FBFD",
"7 	c #F1F8FC",
"8 	c #BDE1F1",
"9 	c #2A9ED2",
"0 	c #6EBDE0",
"a 	c #FCFDFE",
"b 	c #C9E6F4",
"c 	c #89C9E6",
"d 	c #86C8E5",
"e 	c #9FD3EB",
"f 	c #2A9DD2",
"g 	c #62B7DE",
"h 	c #9ED3EA",
"i 	c #DAEEF7",
"j 	c #2E9FD3",
"k 	c #BFE1F1",
"l 	c #5CB5DD",
"m 	c #33A1D4",
"n 	c #6CBCE0",
"o 	c #8BCAE7",
"p 	c #2099D0",
"q 	c #F3FAFD",
"r 	c #279CD1",
"s 	c #4CADD9",
"t 	c #A5D6EC",
"u 	c #50AFDA",
"v 	c #1E98CF",
"w 	c #85C7E5",
"x 	c #EDF7FB",
"y 	c #AEDAEE",
"z 	c #70BEE1",
"A 	c #35A2D4",
"B 	c #BEE1F1",
"C 	c #D6ECF6",
"D 	c #F3FAFC",
"E 	c #53B0DB",
"F 	c #EEF7FC",
"G 	c #52B0DA",
"H 	c #8ECBE7",
"I 	c #FAFDFE",
"J 	c #F2F9FC",
"K 	c #2B9ED2",
"L 	c #229AD0",
"M 	c #B1DBEE",
"N 	c #269CD1",
"O 	c #48ABD8",
"P 	c #AFDAEE",
"Q 	c #F7FBFD",
"R 	c #A8D7ED",
"S 	c #299DD2",
"T 	c #DCEFF8",
"U 	c #9DD2EA",
"V 	c #61B7DE",
"W 	c #E8F5FA",
"X 	c #CCE8F4",
"Y 	c #91CDE8",
"Z 	c #56B2DB",
"` 	c #239AD1",
" .	c #1B98CF",
"..	c #E3F2F9",
"+.	c #F6FBFD",
"@.	c #5DB5DD",
"#.	c #CDE8F4",
"$.	c #FCFEFE",
"%.	c #E9F5FA",
"&.	c #1F98D0",
"*.	c #39A4D5",
"=.	c #C3E4F2",
"-.	c #5AB3DC",
";.	c #98D0E9",
">.	c #D5ECF6",
",.	c #FEFEFF",
"'.	c #A6D6EC",
").	c #4EAEDA",
"!.	c #8AC9E6",
"~.	c #DBEEF7",
"{.	c #32A1D4",
"].	c #1D98CF",
"^.	c #30A0D3",
"/.	c #A1D4EB",
"                        . . + @ @ # $ %                         ",
"                  $ @ + + + + + + + + + + & *                   ",
"              $ $ + + + + + + + + + + + + + + $ &               ",
"            * + + + + + + + + + + + + + + + + + + *             ",
"          % + + + + + + + + + + + + + + + + + + + + @           ",
"        @ + + + + + + + + + + = - + + + + + + + + + + %         ",
"      & + + + + + + + + + + + ; > , ' ) ! + + + + + + + *       ",
"    . + + + + + + + + ~ { + - ] ^ + / ( _ + + + + + + + + $     ",
"    $ + + + + + + + : ] < [ } ] | 1 2 3 + + + + + + + + + $     ",
"  * + + + + + + + + 4 5 6 ] ] ] ] 7 ] 8 9 + + + + + + + + + $   ",
"  & + + + + + + + + + + 0 ] ] ( < ] ] ] a b c { + + + + + + @   ",
"  + + + + + + + + + + + d ] ] e f g h i ] ] < j + + + + + + +   ",
"% + + + + + + + + + + + k ] ] l + + + + m n o + + + + + + + + . ",
"$ + + + + + + + + + + p q ] ] r + + + + + + + + + + + + + + + . ",
"# + + + + + + + + + + s ] ] ] t u v + + + + + + + + + + + + + + ",
"@ + + + + + + + + + + w ] ] ] ] ] x y z A + + + + + + + + + + @ ",
"@ + + + + + + + + + + B ] ] C D ] ] ] ] ] E + + + + + + + + + @ ",
"+ + + + + + + + + + p D ] F , p G H b I J , + + + + + + + + + # ",
". + + + + + + + K L u ] ] M + + + + + N O + + + + + + + + + + $ ",
". + + + + + + + P Q J ] ] R + + + + + + + + + + + + + + + + + % ",
"  + + + + + + S 7 ] ] ] ] ] T U V S + + + + + + + + + + + + +   ",
"  & + + + + + + , u c W ] ] ] ] ] 2 X Y Z ` + + + + + + + + &   ",
"   .+ + + + + + + + + ..+.@.#.] $.] ] ] ] %.&.+ + + + + + + *   ",
"    $ + + + + + + + *.] =.+ X ( *.-.;.>.,.'.+ + + + + + + $     ",
"     .+ + + + + + + ).i !.N I ~.+ + + + _ {.+ + + + + + + .     ",
"      . + + + + + + + + ].^./.c + + + + + + + + + + + + *       ",
"        % + + + + + + + + + + + + + + + + + + + + + + @         ",
"          @ + + + + + + + + + + + + + + + + + + + + %           ",
"            * + + + + + + + + + + + + + + + + + + *             ",
"              . $ + + + + + + + + + + + + + + $ $               ",
"                  * & + + + + + + + + + + &  .                  ",
"                        % $ # @ @ + . .                         "};
