/* XPM */
static char * D:\data\build\elekcoin\elekcoin_core_wallet_r\share\pixmaps\elekcoin16_xpm[] = {
"16 16 67 1",
" 	c None",
".	c #1C96CF",
"+	c #1C97CE",
"@	c #2C96CD",
"#	c #2F97CD",
"$	c #1C96CE",
"%	c #1C97CF",
"&	c #1B97CF",
"*	c #2A9DD2",
"=	c #249BD1",
"-	c #2D9FD3",
";	c #2099D0",
">	c #8FCCE7",
",	c #7DC3E3",
"'	c #AAD8ED",
")	c #8CCAE7",
"!	c #F2F9FC",
"~	c #F0F8FC",
"{	c #ABD9ED",
"]	c #E4F3F9",
"^	c #BDE1F1",
"/	c #E7F4FA",
"(	c #A2D4EB",
"_	c #DDF0F8",
":	c #F1F8FC",
"<	c #78C1E2",
"[	c #1D97CF",
"}	c #ECF6FB",
"|	c #A0D4EB",
"1	c #36A3D4",
"2	c #38A4D5",
"3	c #42A9D7",
"4	c #FFFFFF",
"5	c #E8F5FA",
"6	c #97CFE9",
"7	c #56B1DB",
"8	c #229AD0",
"9	c #2B96CD",
"0	c #7BC3E3",
"a	c #FBFDFE",
"b	c #82C6E5",
"c	c #B7DEF0",
"d	c #99D0E9",
"e	c #2E97CC",
"f	c #D0E9F5",
"g	c #D6ECF6",
"h	c #1F98D0",
"i	c #279CD1",
"j	c #1F99D0",
"k	c #98D0E9",
"l	c #DCEFF8",
"m	c #DEF0F8",
"n	c #A1D4EB",
"o	c #65B9DF",
"p	c #2C9FD2",
"q	c #8ECBE7",
"r	c #8DCBE7",
"s	c #E5F3FA",
"t	c #A4D5EC",
"u	c #DBEEF7",
"v	c #E3F2F9",
"w	c #58B2DC",
"x	c #3FA7D6",
"y	c #C0E2F2",
"z	c #269CD1",
"A	c #2C97CC",
"B	c #2A96CD",
"     .+@#$$     ",
"   $$%%%%%%$$   ",
"  &%%%%*=%%%%&  ",
" $%%%-;>,'=%%%$ ",
" $%%%)!~{];%%%$ ",
"$%%%%%^/(_:<%%%$",
"$%%%%[}|%%12%%%+",
"#%%%%345678%%%%9",
"@%%%%0abc~d%%%%e",
"+%%%,fg%%hi%%%%$",
".%%jkl4mnop%%%%$",
" $%%%qrstuv[%%$ ",
" $%%%wxy%%z%%%$ ",
"  &%%%%%%%%%%&  ",
"   $$%%%%%%$$   ",
"     $$AB+.     "};
